<mxfile host="app.diagrams.net" modified="2023-12-25T01:35:56.343Z" agent="Mozilla/5.0 (Macintosh; Intel Mac OS X 10_15_7) AppleWebKit/537.36 (KHTML, like Gecko) Chrome/120.0.0.0 Safari/537.36 Edg/120.0.0.0" etag="vLHOrxAU1kVopkox8E9m" version="22.1.11" type="github">
  <diagram id="C5RBs43oDa-KdzZeNtuy" name="Page-1">
    <mxGraphModel dx="2014" dy="824" grid="1" gridSize="10" guides="1" tooltips="1" connect="1" arrows="1" fold="1" page="1" pageScale="1" pageWidth="827" pageHeight="1169" math="0" shadow="0">
      <root>
        <mxCell id="WIyWlLk6GJQsqaUBKTNV-0" />
        <mxCell id="WIyWlLk6GJQsqaUBKTNV-1" parent="WIyWlLk6GJQsqaUBKTNV-0" />
        <mxCell id="WIyWlLk6GJQsqaUBKTNV-2" value="" style="rounded=0;html=1;jettySize=auto;orthogonalLoop=1;fontSize=11;endArrow=block;endFill=0;endSize=8;strokeWidth=1;shadow=0;labelBackgroundColor=none;edgeStyle=orthogonalEdgeStyle;" parent="WIyWlLk6GJQsqaUBKTNV-1" source="WIyWlLk6GJQsqaUBKTNV-3" target="WIyWlLk6GJQsqaUBKTNV-6" edge="1">
          <mxGeometry relative="1" as="geometry" />
        </mxCell>
        <mxCell id="WIyWlLk6GJQsqaUBKTNV-3" value="&lt;div style=&quot;background-color:#24273a;color:#cad3f5&quot;&gt;&lt;pre style=&quot;font-family:&#39;Rec Mono Casual&#39;,monospace;font-size:10.5pt;&quot;&gt;createAxios&lt;/pre&gt;&lt;/div&gt;" style="rounded=1;whiteSpace=wrap;html=1;fontSize=12;glass=0;strokeWidth=1;shadow=0;" parent="WIyWlLk6GJQsqaUBKTNV-1" vertex="1">
          <mxGeometry x="155" y="20" width="120" height="40" as="geometry" />
        </mxCell>
        <mxCell id="WIyWlLk6GJQsqaUBKTNV-4" value="" style="rounded=0;html=1;jettySize=auto;orthogonalLoop=1;fontSize=11;endArrow=block;endFill=0;endSize=8;strokeWidth=1;shadow=0;labelBackgroundColor=none;edgeStyle=orthogonalEdgeStyle;entryX=0.5;entryY=0;entryDx=0;entryDy=0;" parent="WIyWlLk6GJQsqaUBKTNV-1" source="WIyWlLk6GJQsqaUBKTNV-6" target="iIVYPpQdFaUEXAyKhEXF-25" edge="1">
          <mxGeometry y="20" relative="1" as="geometry">
            <mxPoint as="offset" />
          </mxGeometry>
        </mxCell>
        <mxCell id="WIyWlLk6GJQsqaUBKTNV-5" value="No" style="edgeStyle=orthogonalEdgeStyle;rounded=0;html=1;jettySize=auto;orthogonalLoop=1;fontSize=11;endArrow=block;endFill=0;endSize=8;strokeWidth=1;shadow=0;labelBackgroundColor=none;" parent="WIyWlLk6GJQsqaUBKTNV-1" source="WIyWlLk6GJQsqaUBKTNV-6" target="WIyWlLk6GJQsqaUBKTNV-7" edge="1">
          <mxGeometry y="10" relative="1" as="geometry">
            <mxPoint as="offset" />
          </mxGeometry>
        </mxCell>
        <mxCell id="iIVYPpQdFaUEXAyKhEXF-2" value="desc" style="edgeLabel;html=1;align=center;verticalAlign=middle;resizable=0;points=[];fontSize=16;" parent="WIyWlLk6GJQsqaUBKTNV-5" vertex="1" connectable="0">
          <mxGeometry x="-0.0308" y="17" relative="1" as="geometry">
            <mxPoint as="offset" />
          </mxGeometry>
        </mxCell>
        <mxCell id="WIyWlLk6GJQsqaUBKTNV-6" value="&lt;div style=&quot;background-color:#24273a;color:#cad3f5&quot;&gt;&lt;pre style=&quot;font-family:&#39;Rec Mono Casual&#39;,monospace;font-size:10.5pt;&quot;&gt;beforeRequestHook&lt;/pre&gt;&lt;/div&gt;" style="rhombus;whiteSpace=wrap;html=1;shadow=0;fontFamily=Helvetica;fontSize=12;align=center;strokeWidth=1;spacing=6;spacingTop=-4;" parent="WIyWlLk6GJQsqaUBKTNV-1" vertex="1">
          <mxGeometry x="100" y="140" width="230" height="110" as="geometry" />
        </mxCell>
        <mxCell id="WIyWlLk6GJQsqaUBKTNV-7" value="创建 axios 实例之前运行的 hook 可以修改要传递给 axios 的配置" style="rounded=1;whiteSpace=wrap;html=1;fontSize=12;glass=0;strokeWidth=1;shadow=0;" parent="WIyWlLk6GJQsqaUBKTNV-1" vertex="1">
          <mxGeometry x="460" y="167.5" width="190" height="55" as="geometry" />
        </mxCell>
        <mxCell id="iIVYPpQdFaUEXAyKhEXF-4" value="" style="edgeStyle=none;curved=1;rounded=0;orthogonalLoop=1;jettySize=auto;html=1;fontSize=12;startSize=8;endSize=8;" parent="WIyWlLk6GJQsqaUBKTNV-1" source="WIyWlLk6GJQsqaUBKTNV-10" target="iIVYPpQdFaUEXAyKhEXF-3" edge="1">
          <mxGeometry relative="1" as="geometry" />
        </mxCell>
        <mxCell id="iIVYPpQdFaUEXAyKhEXF-10" style="edgeStyle=none;curved=1;rounded=0;orthogonalLoop=1;jettySize=auto;html=1;entryX=0.5;entryY=0;entryDx=0;entryDy=0;fontSize=12;startSize=8;endSize=8;" parent="WIyWlLk6GJQsqaUBKTNV-1" source="WIyWlLk6GJQsqaUBKTNV-10" target="iIVYPpQdFaUEXAyKhEXF-8" edge="1">
          <mxGeometry relative="1" as="geometry" />
        </mxCell>
        <mxCell id="WIyWlLk6GJQsqaUBKTNV-10" value="&lt;div style=&quot;background-color:#24273a;color:#cad3f5&quot;&gt;&lt;pre style=&quot;font-family:&#39;Rec Mono Casual&#39;,monospace;font-size:10.5pt;&quot;&gt;&lt;div&gt;&lt;pre style=&quot;font-family:&#39;Rec Mono Casual&#39;,monospace;font-size:10.5pt;&quot;&gt;requestInterceptors&lt;/pre&gt;&lt;/div&gt;&lt;/pre&gt;&lt;/div&gt;" style="rhombus;whiteSpace=wrap;html=1;shadow=0;fontFamily=Helvetica;fontSize=12;align=center;strokeWidth=1;spacing=6;spacingTop=-4;" parent="WIyWlLk6GJQsqaUBKTNV-1" vertex="1">
          <mxGeometry x="100" y="480" width="230" height="120" as="geometry" />
        </mxCell>
        <mxCell id="iIVYPpQdFaUEXAyKhEXF-0" style="edgeStyle=none;curved=1;rounded=0;orthogonalLoop=1;jettySize=auto;html=1;exitX=0;exitY=0.5;exitDx=0;exitDy=0;fontSize=12;startSize=8;endSize=8;" parent="WIyWlLk6GJQsqaUBKTNV-1" source="WIyWlLk6GJQsqaUBKTNV-7" target="WIyWlLk6GJQsqaUBKTNV-7" edge="1">
          <mxGeometry relative="1" as="geometry" />
        </mxCell>
        <mxCell id="iIVYPpQdFaUEXAyKhEXF-3" value="&amp;nbsp;axios 的请求之前拦截器" style="rounded=1;whiteSpace=wrap;html=1;shadow=0;strokeWidth=1;spacing=6;spacingTop=-4;fontSize=16;" parent="WIyWlLk6GJQsqaUBKTNV-1" vertex="1">
          <mxGeometry x="430" y="510" width="195" height="60" as="geometry" />
        </mxCell>
        <mxCell id="iIVYPpQdFaUEXAyKhEXF-7" value="" style="edgeStyle=none;curved=1;rounded=0;orthogonalLoop=1;jettySize=auto;html=1;fontSize=12;startSize=8;endSize=8;" parent="WIyWlLk6GJQsqaUBKTNV-1" source="iIVYPpQdFaUEXAyKhEXF-8" target="iIVYPpQdFaUEXAyKhEXF-9" edge="1">
          <mxGeometry relative="1" as="geometry" />
        </mxCell>
        <mxCell id="iIVYPpQdFaUEXAyKhEXF-14" style="edgeStyle=none;curved=1;rounded=0;orthogonalLoop=1;jettySize=auto;html=1;fontSize=12;startSize=8;endSize=8;" parent="WIyWlLk6GJQsqaUBKTNV-1" source="iIVYPpQdFaUEXAyKhEXF-8" target="iIVYPpQdFaUEXAyKhEXF-12" edge="1">
          <mxGeometry relative="1" as="geometry" />
        </mxCell>
        <mxCell id="iIVYPpQdFaUEXAyKhEXF-8" value="&lt;div style=&quot;background-color:#24273a;color:#cad3f5&quot;&gt;&lt;pre style=&quot;font-family:&#39;Rec Mono Casual&#39;,monospace;font-size:10.5pt;&quot;&gt;&lt;div&gt;&lt;pre style=&quot;font-family:&#39;Rec Mono Casual&#39;,monospace;font-size:10.5pt;&quot;&gt;requestInterceptorsCatch&lt;/pre&gt;&lt;/div&gt;&lt;/pre&gt;&lt;/div&gt;" style="rhombus;whiteSpace=wrap;html=1;shadow=0;fontFamily=Helvetica;fontSize=12;align=center;strokeWidth=1;spacing=6;spacingTop=-4;" parent="WIyWlLk6GJQsqaUBKTNV-1" vertex="1">
          <mxGeometry x="85" y="640" width="260" height="120" as="geometry" />
        </mxCell>
        <mxCell id="iIVYPpQdFaUEXAyKhEXF-9" value="axios 请求之前的错误拦截处理" style="rounded=1;whiteSpace=wrap;html=1;shadow=0;strokeWidth=1;spacing=6;spacingTop=-4;fontSize=16;" parent="WIyWlLk6GJQsqaUBKTNV-1" vertex="1">
          <mxGeometry x="430" y="670" width="195" height="60" as="geometry" />
        </mxCell>
        <mxCell id="iIVYPpQdFaUEXAyKhEXF-11" value="" style="edgeStyle=none;curved=1;rounded=0;orthogonalLoop=1;jettySize=auto;html=1;fontSize=12;startSize=8;endSize=8;" parent="WIyWlLk6GJQsqaUBKTNV-1" source="iIVYPpQdFaUEXAyKhEXF-12" target="iIVYPpQdFaUEXAyKhEXF-13" edge="1">
          <mxGeometry relative="1" as="geometry" />
        </mxCell>
        <mxCell id="iIVYPpQdFaUEXAyKhEXF-18" style="edgeStyle=none;curved=1;rounded=0;orthogonalLoop=1;jettySize=auto;html=1;entryX=0.5;entryY=0;entryDx=0;entryDy=0;fontSize=12;startSize=8;endSize=8;exitX=0.5;exitY=1;exitDx=0;exitDy=0;" parent="WIyWlLk6GJQsqaUBKTNV-1" source="iIVYPpQdFaUEXAyKhEXF-12" target="iIVYPpQdFaUEXAyKhEXF-16" edge="1">
          <mxGeometry relative="1" as="geometry" />
        </mxCell>
        <mxCell id="iIVYPpQdFaUEXAyKhEXF-22" style="edgeStyle=none;curved=1;rounded=0;orthogonalLoop=1;jettySize=auto;html=1;entryX=0.5;entryY=0;entryDx=0;entryDy=0;fontSize=12;startSize=8;endSize=8;exitX=0.5;exitY=1;exitDx=0;exitDy=0;" parent="WIyWlLk6GJQsqaUBKTNV-1" source="iIVYPpQdFaUEXAyKhEXF-12" target="iIVYPpQdFaUEXAyKhEXF-20" edge="1">
          <mxGeometry relative="1" as="geometry" />
        </mxCell>
        <mxCell id="iIVYPpQdFaUEXAyKhEXF-12" value="&lt;div style=&quot;background-color:#24273a;color:#cad3f5&quot;&gt;&lt;pre style=&quot;font-family:&#39;Rec Mono Casual&#39;,monospace;font-size:10.5pt;&quot;&gt;transformRequestHook&lt;/pre&gt;&lt;/div&gt;" style="rhombus;whiteSpace=wrap;html=1;shadow=0;fontFamily=Helvetica;fontSize=12;align=center;strokeWidth=1;spacing=6;spacingTop=-4;" parent="WIyWlLk6GJQsqaUBKTNV-1" vertex="1">
          <mxGeometry x="100" y="810" width="230" height="120" as="geometry" />
        </mxCell>
        <mxCell id="iIVYPpQdFaUEXAyKhEXF-13" value="在 axios 响应结果之前对响应结果进行预处理" style="rounded=1;whiteSpace=wrap;html=1;shadow=0;strokeWidth=1;spacing=6;spacingTop=-4;fontSize=16;" parent="WIyWlLk6GJQsqaUBKTNV-1" vertex="1">
          <mxGeometry x="430" y="840" width="195" height="60" as="geometry" />
        </mxCell>
        <mxCell id="iIVYPpQdFaUEXAyKhEXF-15" value="" style="edgeStyle=none;curved=1;rounded=0;orthogonalLoop=1;jettySize=auto;html=1;fontSize=12;startSize=8;endSize=8;" parent="WIyWlLk6GJQsqaUBKTNV-1" source="iIVYPpQdFaUEXAyKhEXF-16" target="iIVYPpQdFaUEXAyKhEXF-17" edge="1">
          <mxGeometry relative="1" as="geometry" />
        </mxCell>
        <mxCell id="iIVYPpQdFaUEXAyKhEXF-16" value="&lt;div style=&quot;background-color:#24273a;color:#cad3f5&quot;&gt;&lt;pre style=&quot;font-family:&#39;Rec Mono Casual&#39;,monospace;font-size:10.5pt;&quot;&gt;&lt;div&gt;&lt;pre style=&quot;font-family:&#39;Rec Mono Casual&#39;,monospace;font-size:10.5pt;&quot;&gt;responseInterceptors&lt;/pre&gt;&lt;/div&gt;&lt;/pre&gt;&lt;/div&gt;" style="rhombus;whiteSpace=wrap;html=1;shadow=0;fontFamily=Helvetica;fontSize=12;align=center;strokeWidth=1;spacing=6;spacingTop=-4;" parent="WIyWlLk6GJQsqaUBKTNV-1" vertex="1">
          <mxGeometry x="-100" y="1020" width="230" height="120" as="geometry" />
        </mxCell>
        <mxCell id="iIVYPpQdFaUEXAyKhEXF-17" value="&amp;nbsp;axios 请求成功响应拦截" style="rounded=1;whiteSpace=wrap;html=1;shadow=0;strokeWidth=1;spacing=6;spacingTop=-4;fontSize=16;" parent="WIyWlLk6GJQsqaUBKTNV-1" vertex="1">
          <mxGeometry x="-400" y="1050" width="195" height="60" as="geometry" />
        </mxCell>
        <mxCell id="iIVYPpQdFaUEXAyKhEXF-19" value="" style="edgeStyle=none;curved=1;rounded=0;orthogonalLoop=1;jettySize=auto;html=1;fontSize=12;startSize=8;endSize=8;" parent="WIyWlLk6GJQsqaUBKTNV-1" source="iIVYPpQdFaUEXAyKhEXF-20" target="iIVYPpQdFaUEXAyKhEXF-21" edge="1">
          <mxGeometry relative="1" as="geometry" />
        </mxCell>
        <mxCell id="iIVYPpQdFaUEXAyKhEXF-20" value="&lt;div style=&quot;background-color:#24273a;color:#cad3f5&quot;&gt;&lt;pre style=&quot;font-family:&#39;Rec Mono Casual&#39;,monospace;font-size:10.5pt;&quot;&gt;&lt;pre style=&quot;font-family:&#39;Rec Mono Casual&#39;,monospace;font-size:10.5pt;&quot;&gt;&lt;div&gt;&lt;pre style=&quot;font-family:&#39;Rec Mono Casual&#39;,monospace;font-size:10.5pt;&quot;&gt;responseInterceptorsCatch&lt;/pre&gt;&lt;/div&gt;&lt;/pre&gt;&lt;/pre&gt;&lt;/div&gt;" style="rhombus;whiteSpace=wrap;html=1;shadow=0;fontFamily=Helvetica;fontSize=12;align=center;strokeWidth=1;spacing=6;spacingTop=-4;" parent="WIyWlLk6GJQsqaUBKTNV-1" vertex="1">
          <mxGeometry x="300" y="1010" width="280" height="120" as="geometry" />
        </mxCell>
        <mxCell id="iIVYPpQdFaUEXAyKhEXF-21" value="&amp;nbsp;axios 请求失败响应拦截" style="rounded=1;whiteSpace=wrap;html=1;shadow=0;strokeWidth=1;spacing=6;spacingTop=-4;fontSize=16;" parent="WIyWlLk6GJQsqaUBKTNV-1" vertex="1">
          <mxGeometry x="710" y="1040" width="195" height="60" as="geometry" />
        </mxCell>
        <mxCell id="iIVYPpQdFaUEXAyKhEXF-23" value="" style="edgeStyle=orthogonalEdgeStyle;rounded=0;html=1;jettySize=auto;orthogonalLoop=1;fontSize=11;endArrow=block;endFill=0;endSize=8;strokeWidth=1;shadow=0;labelBackgroundColor=none;" parent="WIyWlLk6GJQsqaUBKTNV-1" source="iIVYPpQdFaUEXAyKhEXF-25" target="iIVYPpQdFaUEXAyKhEXF-26" edge="1">
          <mxGeometry x="-0.0909" y="3" relative="1" as="geometry">
            <mxPoint as="offset" />
          </mxGeometry>
        </mxCell>
        <mxCell id="iIVYPpQdFaUEXAyKhEXF-28" style="edgeStyle=none;curved=1;rounded=0;orthogonalLoop=1;jettySize=auto;html=1;entryX=0.5;entryY=0;entryDx=0;entryDy=0;fontSize=12;startSize=8;endSize=8;" parent="WIyWlLk6GJQsqaUBKTNV-1" source="iIVYPpQdFaUEXAyKhEXF-25" target="WIyWlLk6GJQsqaUBKTNV-10" edge="1">
          <mxGeometry relative="1" as="geometry" />
        </mxCell>
        <mxCell id="iIVYPpQdFaUEXAyKhEXF-25" value="&lt;div style=&quot;background-color:#24273a;color:#cad3f5&quot;&gt;&lt;pre style=&quot;font-family:&#39;Rec Mono Casual&#39;,monospace;font-size:10.5pt;&quot;&gt;&lt;div&gt;&lt;pre style=&quot;font-family:&#39;Rec Mono Casual&#39;,monospace;font-size:10.5pt;&quot;&gt;axiosInstance&lt;/pre&gt;&lt;/div&gt;&lt;/pre&gt;&lt;/div&gt;" style="rhombus;whiteSpace=wrap;html=1;shadow=0;fontFamily=Helvetica;fontSize=12;align=center;strokeWidth=1;spacing=6;spacingTop=-4;" parent="WIyWlLk6GJQsqaUBKTNV-1" vertex="1">
          <mxGeometry x="100" y="310" width="230" height="120" as="geometry" />
        </mxCell>
        <mxCell id="iIVYPpQdFaUEXAyKhEXF-26" value="创建&amp;nbsp; axios 实例" style="rounded=1;whiteSpace=wrap;html=1;fontSize=12;glass=0;strokeWidth=1;shadow=0;" parent="WIyWlLk6GJQsqaUBKTNV-1" vertex="1">
          <mxGeometry x="460" y="342.5" width="190" height="55" as="geometry" />
        </mxCell>
        <mxCell id="iIVYPpQdFaUEXAyKhEXF-27" style="edgeStyle=none;curved=1;rounded=0;orthogonalLoop=1;jettySize=auto;html=1;exitX=0;exitY=0.5;exitDx=0;exitDy=0;fontSize=12;startSize=8;endSize=8;" parent="WIyWlLk6GJQsqaUBKTNV-1" source="iIVYPpQdFaUEXAyKhEXF-26" target="iIVYPpQdFaUEXAyKhEXF-26" edge="1">
          <mxGeometry relative="1" as="geometry" />
        </mxCell>
      </root>
    </mxGraphModel>
  </diagram>
</mxfile>
